<?xml version="1.0" encoding="UTF-8"?>
<svg version="1.1" xmlns="http://www.w3.org/2000/svg" width="512" height="512">
<path d="M0 0 C1.01790619 0.00215515 2.03581238 0.0043103 3.08456421 0.00653076 C17.69363523 0.05620146 32.02575853 0.30709809 46.375 3.3125 C47.34985352 3.51117676 48.32470703 3.70985352 49.32910156 3.91455078 C97.7109774 14.03517194 141.69928269 35.9516877 177.375 70.3125 C178.3640332 71.26068604 178.3640332 71.26068604 179.37304688 72.22802734 C188.86130305 81.37247479 197.6012044 90.66984009 205.375 101.3125 C206.23306152 102.46355017 207.09113451 103.61459177 207.94921875 104.765625 C213.98736829 112.95680614 219.34595521 121.47054105 224.375 130.3125 C224.73948242 130.94430176 225.10396484 131.57610352 225.47949219 132.22705078 C247.08534998 169.97532572 256.85198095 212.74189997 256.6875 255.9375 C256.68534485 256.95540619 256.6831897 257.97331238 256.68096924 259.02206421 C256.63129854 273.63113523 256.38040191 287.96325853 253.375 302.3125 C253.07698486 303.77478027 253.07698486 303.77478027 252.77294922 305.26660156 C242.65232806 353.6484774 220.7358123 397.63678269 186.375 433.3125 C185.74287598 433.97185547 185.11075195 434.63121094 184.45947266 435.31054688 C175.31502521 444.79880305 166.01765991 453.5387044 155.375 461.3125 C154.22394983 462.17056152 153.07290823 463.02863451 151.921875 463.88671875 C143.73224019 469.92427396 135.22961724 475.30707302 126.375 480.3125 C125.66778809 480.7146875 124.96057617 481.116875 124.23193359 481.53125 C101.09654164 494.5566741 75.92537591 503.30551461 49.9375 508.625 C49.21860596 508.77235596 48.49971191 508.91971191 47.7590332 509.0715332 C33.08339502 511.86090125 18.55831162 512.66142619 3.64770508 512.62817383 C0.70811513 512.6250221 -2.2304558 512.64854926 -5.16992188 512.67382812 C-18.54306192 512.71848737 -31.43916711 511.51301542 -44.625 509.3125 C-46.33055054 509.03031616 -46.33055054 509.03031616 -48.07055664 508.74243164 C-91.33802759 500.97044532 -132.38793216 480.98345309 -165.625 452.3125 C-166.37007813 451.67828125 -167.11515625 451.0440625 -167.8828125 450.390625 C-181.38779833 438.57948485 -194.05918743 425.82889772 -204.625 411.3125 C-205.48149066 410.16255169 -206.33826433 409.01281411 -207.1953125 407.86328125 C-213.23534209 399.67315742 -218.61867614 391.16870382 -223.625 382.3125 C-224.0271875 381.60528809 -224.429375 380.89807617 -224.84375 380.16943359 C-237.8691741 357.03404164 -246.61801461 331.86287591 -251.9375 305.875 C-252.08485596 305.15610596 -252.23221191 304.43721191 -252.3840332 303.6965332 C-255.35789088 288.05024391 -255.99800362 272.57681954 -255.9375 256.6875 C-255.93534485 255.66959381 -255.9331897 254.65168762 -255.93096924 253.60293579 C-255.88129854 238.99386477 -255.63040191 224.66174147 -252.625 210.3125 C-252.42632324 209.33764648 -252.22764648 208.36279297 -252.02294922 207.35839844 C-241.90232806 158.9765226 -219.9858123 114.98821731 -185.625 79.3125 C-184.99287598 78.65314453 -184.36075195 77.99378906 -183.70947266 77.31445312 C-174.56502521 67.82619695 -165.26765991 59.0862956 -154.625 51.3125 C-153.47394983 50.45443848 -152.32290823 49.59636549 -151.171875 48.73828125 C-142.98224019 42.70072604 -134.47961724 37.31792698 -125.625 32.3125 C-124.91778809 31.9103125 -124.21057617 31.508125 -123.48193359 31.09375 C-100.34654164 18.0683259 -75.17537591 9.31948539 -49.1875 4 C-48.46860596 3.85264404 -47.74971191 3.70528809 -47.0090332 3.5534668 C-31.36274391 0.57960912 -15.88931954 -0.06050362 0 0 Z " fill="#D0C3FF" transform="translate(255.625,-0.3125)"/>
<path d="M0 0 C1.66030977 1.29413874 3.30752303 2.60535936 4.9375 3.9375 C5.65164063 4.48921875 6.36578125 5.0409375 7.1015625 5.609375 C15.92500187 12.76351503 23.98899912 23.26822622 25.75 34.6875 C26.48150896 39.01065204 27.98862408 41.97719281 30.3125 45.6875 C40.73320838 62.74352374 38.2079089 81.46204358 36.4375 100.4375 C36.29231968 102.05072297 36.14778547 103.66400422 36.00390625 105.27734375 C35.65584234 109.16477113 35.29918434 113.0513172 34.9375 116.9375 C35.54335938 117.20949219 36.14921875 117.48148438 36.7734375 117.76171875 C41.53009342 120.34611123 44.35364516 124.88763099 45.9375 129.9375 C46.1539767 132.52959761 46.26721976 134.97430815 46.25 137.5625 C46.25676758 138.62319702 46.25676758 138.62319702 46.26367188 139.70532227 C46.21103063 144.16312464 45.52732417 147.66524086 43.9375 151.875 C42.98558055 154.41167253 42.98558055 154.41167253 42.9375 156.9375 C45.07608111 160.50180185 47.94086065 163.09237613 50.9375 165.9375 C54.14929484 170.75519226 54.88573618 175.26783783 53.9375 180.9375 C53 182.9296875 53 182.9296875 51.875 184.75 C49.71447031 187.59161772 49.71447031 187.59161772 50.11328125 189.84765625 C51.12962782 192.42464874 52.52647266 194.3453896 54.1875 196.5625 C61.50957916 206.7863477 66.31180742 217.14757446 64.9375 229.9375 C62.51915368 236.1967493 57.27263674 239.85836436 51.37890625 242.58203125 C28.40984747 251.96423611 5.15705994 250.48118192 -18.0625 242.9375 C-12.11738084 257.26936754 -12.11738084 257.26936754 -0.4375 266.31640625 C3.22596847 267.44203125 6.93334357 268.3827827 10.64697266 269.32666016 C32.52257029 275.16046375 52.79192163 286.21766262 69.9375 300.9375 C70.84242188 301.70835937 71.74734375 302.47921875 72.6796875 303.2734375 C81.37825239 310.9117895 88.2760529 319.52559477 94.9375 328.9375 C84.54747408 336.45341838 74.11728443 343.64511278 62.9375 349.9375 C62.23463867 350.33678711 61.53177734 350.73607422 60.80761719 351.14746094 C37.66760066 364.17707024 12.49407463 372.92924579 -13.5 378.25 C-14.21889404 378.39735596 -14.93778809 378.54471191 -15.6784668 378.6965332 C-30.35410498 381.48590125 -44.87918838 382.28642619 -59.78979492 382.25317383 C-62.72938487 382.2500221 -65.6679558 382.27354926 -68.60742188 382.29882812 C-81.98056192 382.34348737 -94.87666711 381.13801542 -108.0625 378.9375 C-109.19953369 378.74937744 -110.33656738 378.56125488 -111.50805664 378.36743164 C-147.178883 371.96000434 -180.92371142 357.08283196 -210.625 336.5 C-211.3461499 336.0037915 -212.0672998 335.50758301 -212.81030273 334.99633789 C-213.80332397 334.28852173 -213.80332397 334.28852173 -214.81640625 333.56640625 C-215.39720947 333.15463135 -215.9780127 332.74285645 -216.57641602 332.31860352 C-218.31691394 330.70105846 -219.12225321 329.1028034 -220.0625 326.9375 C-211.14427554 315.84769843 -202.3773214 305.6779683 -191.0625 296.9375 C-190.13695312 296.19628906 -189.21140625 295.45507812 -188.2578125 294.69140625 C-173.22911233 282.94132495 -155.84504018 274.22465942 -137.3671875 269.38671875 C-136.42834717 269.14010498 -135.48950684 268.89349121 -134.5222168 268.6394043 C-132.73132541 268.18596416 -130.93325805 267.75961012 -129.12817383 267.36645508 C-121.23536748 265.41355591 -117.5027035 260.93005265 -113.35546875 254.14453125 C-112.99066406 253.35433594 -112.62585938 252.56414062 -112.25 251.75 C-111.87230469 250.95207031 -111.49460937 250.15414063 -111.10546875 249.33203125 C-110.03995218 246.88573292 -109.03743886 244.42116778 -108.0625 241.9375 C-109.22394531 242.38738281 -110.38539063 242.83726562 -111.58203125 243.30078125 C-133.47673188 251.47345752 -157.1909063 251.31385504 -179.0625 242.9375 C-184.96660588 240.12450743 -190.58575673 237.24193741 -193.0625 230.9375 C-194.9772553 216.32587214 -189.17399704 205.62420663 -181.0625 193.9375 C-180.48371094 193.2259375 -179.90492188 192.514375 -179.30859375 191.78125 C-178.89738281 191.1728125 -178.48617187 190.564375 -178.0625 189.9375 C-178.76388771 187.38699922 -179.82142441 185.3674781 -181.109375 183.0703125 C-182.90155055 179.05995247 -182.87022776 175.21478566 -182.0625 170.9375 C-179.52480088 166.01179749 -176.2119098 161.84599371 -172.0625 158.1875 C-169.68962473 156.04148135 -169.68962473 156.04148135 -170.1875 152.75 C-170.95366795 150.02073032 -170.95366795 150.02073032 -172.0625 147.9375 C-172.24128097 145.04769609 -172.34029906 142.20424462 -172.375 139.3125 C-172.40400391 138.53003906 -172.43300781 137.74757813 -172.46289062 136.94140625 C-172.5366019 130.10326783 -170.62330842 125.22121606 -166.4296875 119.84375 C-162.28472222 115.9375 -162.28472222 115.9375 -160.0625 115.9375 C-160.26166016 114.48730469 -160.26166016 114.48730469 -160.46484375 113.0078125 C-160.64144531 111.70585937 -160.81804687 110.40390625 -161 109.0625 C-161.17402344 107.78632813 -161.34804687 106.51015625 -161.52734375 105.1953125 C-162.70992043 95.96666184 -163.29672534 86.8719663 -163.375 77.5625 C-163.40400391 76.42039062 -163.43300781 75.27828125 -163.46289062 74.1015625 C-163.57333426 59.14919322 -157.8494812 45.77052709 -147.87109375 34.69140625 C-146.0625 32.9375 -146.0625 32.9375 -143.55078125 31.03515625 C-140.90206651 28.8022523 -139.53639869 26.79884975 -137.8125 23.8125 C-134.16581364 17.87180269 -129.87300035 12.95788256 -125.0625 7.9375 C-124.43730469 7.24914062 -123.81210938 6.56078125 -123.16796875 5.8515625 C-90.56963086 -28.87424587 -37.04385205 -26.40141941 0 0 Z " fill="#9E80FF" transform="translate(319.0625,130.0625)"/>
<path d="M0 0 C0.46148437 0.35191406 0.92296875 0.70382813 1.3984375 1.06640625 C3.58904443 2.72451387 5.79392263 4.36253637 8 6 C9.13888672 6.86431641 9.13888672 6.86431641 10.30078125 7.74609375 C28.74758419 21.30192766 51.57154404 25.96855336 74.15722656 22.68652344 C83.79226605 20.76345022 90.27283913 15.83020272 97 9 C97.83402344 9.33773437 98.66804688 9.67546875 99.52734375 10.0234375 C118.82440641 17.67152877 138.60193692 18.46896718 158.09375 10.3984375 C161.11519833 9.01251229 164.07395095 7.57596897 167 6 C168.02379878 12.13418935 168.31607673 18.22844151 168.5625 24.4375 C168.60568359 25.45521484 168.64886719 26.47292969 168.69335938 27.52148438 C168.79868582 30.01421028 168.90081672 32.50702338 169 35 C170.03821899 35.38853149 170.03821899 35.38853149 171.09741211 35.78491211 C172.00241455 36.13303955 172.90741699 36.48116699 173.83984375 36.83984375 C174.73823975 37.18136475 175.63663574 37.52288574 176.56225586 37.87475586 C179.70835472 39.32697115 181.25018392 41.03292056 183 44 C187.81646859 58.44940577 179.10515828 73.12878362 172.8046875 85.77246094 C171.11294358 89.07611748 169.34853857 92.12067717 167 95 C162.36618175 94.56284733 160.23285535 94.23285535 157 91 C154.54129907 90.93767722 154.54129907 90.93767722 152 92 C150.05953461 94.49440335 150.05953461 94.49440335 148.4375 97.6875 C137.49807986 116.72586417 121.55429931 130.2037691 100.6875 137.09375 C82.18258232 141.99211056 64.25730403 138.53674346 47.92089844 129.16650391 C33.38872229 120.34154996 23.78523052 108.28296462 15 94 C14.34 93.01 13.68 92.02 13 91 C10.1086216 91.40158033 8.32763633 91.74403411 6 93.5625 C3.43271701 95.40773465 2.10826498 95.36651823 -1 95 C-9.74088139 87.31521482 -17.01784713 67.11720459 -18.3984375 55.70703125 C-18.31514325 45.420191 -18.31514325 45.420191 -15 41 C-11.19389628 37.95511702 -7.60342955 36.46385207 -3 35 C-2.98018066 34.4016333 -2.96036133 33.8032666 -2.93994141 33.18676758 C-2.55113018 22.00253756 -2.13977705 11.01050324 0 0 Z " fill="#FEFEFF" transform="translate(173,215)"/>
<path d="M0 0 C1.96875 0.65625 1.96875 0.65625 3.9375 1.3125 C4.75992188 1.58449219 5.58234375 1.85648437 6.4296875 2.13671875 C8.06527569 2.68605764 9.69619737 3.24964653 11.3203125 3.83203125 C12.43019531 4.22455078 12.43019531 4.22455078 13.5625 4.625 C14.22378906 4.86476563 14.88507813 5.10453125 15.56640625 5.3515625 C22.08444049 7.08830999 28.73608778 7.18209127 35.4375 7.1875 C36.62956055 7.20586914 36.62956055 7.20586914 37.84570312 7.22460938 C46.25340539 7.24513265 53.61058562 5.30687811 61.4375 2.375 C67.80057803 0 67.80057803 0 70 0 C70.02578125 0.93199219 70.0515625 1.86398437 70.078125 2.82421875 C70.7579373 18.10454524 74.69998647 33.05671619 85.3984375 44.578125 C91.09710465 49.63742949 98.53292699 51.14990996 105.73046875 53.0703125 C109 54 109 54 114 56 C114 66.56 114 77.12 114 88 C109.18001796 87.31143114 105.69199541 86.69417682 101.25 85.1875 C95.85434724 83.49172342 90.458503 82.08279126 84.9375 80.875 C84.25010742 80.71668701 83.56271484 80.55837402 82.85449219 80.39526367 C67.65847575 77.18253603 52.0132733 76.66527025 36.53564453 76.73925781 C33.86858564 76.7500259 31.20219571 76.73925107 28.53515625 76.7265625 C13.29040511 76.71281255 -1.61694212 77.87583922 -16.5 81.3125 C-17.92904663 81.63190552 -17.92904663 81.63190552 -19.38696289 81.95776367 C-28.35013248 83.99929567 -37.17029488 86.44595307 -46 89 C-46 78.11 -46 67.22 -46 56 C-33.3125 52.3125 -33.3125 52.3125 -29.3371582 51.18481445 C-21.08378137 48.73364748 -21.08378137 48.73364748 -15 43 C-14.21302734 42.2265625 -14.21302734 42.2265625 -13.41015625 41.4375 C-2.50673645 29.80718554 -0.74748629 15.10709134 0 0 Z " fill="#FEFDFF" transform="translate(221,354)"/>
<path d="M0 0 C14.3682462 3.59206155 28.34661893 15.00831962 39 25 C35.41755623 28.58244377 29.87252895 28.3293596 25 29 C23.76830078 29.17208984 23.76830078 29.17208984 22.51171875 29.34765625 C14.92241641 30.25327048 7.77870693 30 0 30 C0 20.1 0 10.2 0 0 Z " fill="#FCFCFF" transform="translate(349,416)"/>
<path d="M0 0 C0 9.57 0 19.14 0 29 C-11.2660485 29 -11.2660485 29 -15.17578125 28.4140625 C-16.02333984 28.28773438 -16.87089844 28.16140625 -17.74414062 28.03125 C-18.59169922 27.8971875 -19.43925781 27.763125 -20.3125 27.625 C-21.17939453 27.49867188 -22.04628906 27.37234375 -22.93945312 27.2421875 C-27.20914536 26.58782854 -31.06044736 25.86824146 -35 24 C-28.15393611 16.69753185 -10.87256332 0 0 0 Z " fill="#FDFCFF" transform="translate(160,417)"/>
</svg>
